<svg xmlns="http://www.w3.org/2000/svg" viewBox="0 0 245 245"><defs><style>.cls-1{fill:#fff;}</style></defs><title>Asset 1</title><g id="Layer_2" data-name="Layer 2"><g id="Layer_1-2" data-name="Layer 1"><path class="cls-1" d="M245,245H0V0H245ZM121.74,8c-64.09.1-115,51-115,115C6.75,187.15,58,237.86,122.85,237.8c62.53-.05,113.88-51.77,113.93-114.75A114.71,114.71,0,0,0,121.74,8Z"/><path d="M121.74,8a114.71,114.71,0,0,1,115,115.08c-.05,63-51.4,114.7-113.93,114.75C58,237.86,6.75,187.15,6.73,122.92,6.72,59,57.65,8.07,121.74,8Zm64.08,165.58c1.61-1.86,2.75-3,3.67-4.27,20.56-28.59,20.07-66.41-1.2-95.11A80,80,0,0,0,98,45.83c-55.12,18.8-78.24,82.88-40.79,130.26,21.15,26.75,61.62,37.33,93,23.3,3.44-1.53,5.27-1.38,7,2.15,2,4,4.73,7.65,7,11.55,1.45,2.55,3.14,3.18,5.68,1.61q7.22-4.45,14.49-8.81c3.16-1.89,3.12-3.92,1.18-6.94-8.09-12.61-15.92-25.39-23.91-38.07-2.91-4.62-6-9.12-9.27-14.08-6.49,4.25-12.66,8.13-18.59,12.34-.7.49-.6,3,0,4.21,1.45,3.06,3.38,5.88,5.57,9.56-4.57,1.07-8.2,2.29-11.94,2.75-33.23,4.15-62.12-25.51-57.8-58.81,3.75-29,29-49.78,59.3-45.31,32.91,4.86,54.51,39.6,41.72,72.3-.56,1.44-1.15,3.59-.5,4.67C175,156.73,180.26,164.78,185.82,173.55Zm-66.44-44.88c-2.7-3.65-4.7-6.72-7.07-9.46-2.83-3.28-6.46-3.47-9.84-1.06s-4.75,5.87-2.3,9.56c4.13,6.23,8.43,12.38,13.09,18.24,3.38,4.25,7.72,4.5,11.13.54q16.14-18.72,31.75-37.87c2.76-3.37,1.83-6.93-1.29-9.76-3.85-3.49-8.11-2.93-12,1.72C135.08,109.71,127.49,118.94,119.38,128.67Z"/><path class="cls-1" d="M185.82,173.55c-5.56-8.77-10.79-16.82-15.71-25-.65-1.08-.06-3.23.5-4.67,12.79-32.7-8.81-67.44-41.72-72.3-30.26-4.47-55.55,16.3-59.3,45.31-4.32,33.3,24.57,63,57.8,58.81,3.74-.46,7.37-1.68,11.94-2.75-2.19-3.68-4.12-6.5-5.57-9.56-.57-1.19-.67-3.72,0-4.21,5.93-4.21,12.1-8.09,18.59-12.34,3.27,5,6.36,9.46,9.27,14.08,8,12.68,15.82,25.46,23.91,38.07,1.94,3,2,5.05-1.18,6.94q-7.27,4.35-14.49,8.81c-2.54,1.57-4.23.94-5.68-1.61-2.23-3.9-5-7.54-7-11.55-1.77-3.53-3.6-3.68-7-2.15-31.41,14-71.88,3.45-93-23.3C19.73,128.71,42.85,64.63,98,45.83a80,80,0,0,1,90.32,28.34c21.27,28.7,21.76,66.52,1.2,95.11C188.57,170.56,187.43,171.69,185.82,173.55Z"/><path class="cls-1" d="M119.38,128.67c8.11-9.73,15.7-19,23.43-28.09,3.93-4.65,8.19-5.21,12-1.72,3.12,2.83,4.05,6.39,1.29,9.76q-15.66,19.09-31.75,37.87c-3.41,4-7.75,3.71-11.13-.54-4.66-5.86-9-12-13.09-18.24-2.45-3.69-1-7.19,2.3-9.56s7-2.22,9.84,1.06C114.68,122,116.68,125,119.38,128.67Z"/></g></g></svg>
